<?xml version="1.0" encoding="utf-8"?>
<!-- Generator: Adobe Illustrator 24.1.3, SVG Export Plug-In . SVG Version: 6.00 Build 0)  -->
<svg version="1.1" xmlns="http://www.w3.org/2000/svg" xmlns:xlink="http://www.w3.org/1999/xlink" x="0px" y="0px"
	 viewBox="0 0 59.7 57.3" style="enable-background:new 0 0 59.7 57.3;" xml:space="preserve">
<style type="text/css">
	.st0{fill:#FFFFFF;}
</style>
<g id="off">
	<g>
		<path class="st0" d="M40.4,20.3l0.1-0.1c0.5-0.5,1.4-0.5,1.9,0l15.5,15.5c0.5,0.5,0.5,1.4,0,1.9l-0.1,0.1c-0.5,0.5-1.4,0.5-1.9,0
			L40.4,22.2C39.9,21.7,39.9,20.9,40.4,20.3z"/>
		<path class="st0" d="M40.6,37.7l-0.1-0.1c-0.5-0.5-0.5-1.4,0-1.9l15.5-15.5c0.5-0.5,1.4-0.5,1.9,0l0.1,0.1c0.5,0.5,0.5,1.4,0,1.9
			L42.4,37.7C42,38.2,41.1,38.2,40.6,37.7z"/>
	</g>
	<path class="st0" d="M34.4,4c-0.6-0.3-1.1,0.2-1.1,0.2L14.9,19.2l0,0H4.8c-1.8,0-3.2,1.4-3.2,3.2v13.7c0,1.8,1.4,3.2,3.2,3.2h10.1
		l0,0l18.2,15c0,0,0.5,0.5,1.3,0.1c0.5-0.3,0.4-1,0.4-1V5C34.9,5,34.9,4.3,34.4,4z"/>
</g>
</svg>
